<?xml version="1.0" encoding="UTF-8" standalone="no"?><!DOCTYPE svg PUBLIC "-//W3C//DTD SVG 1.1//EN" "http://www.w3.org/Graphics/SVG/1.1/DTD/svg11.dtd"><svg width="100%" height="100%" viewBox="0 0 1296 432" version="1.1" xmlns="http://www.w3.org/2000/svg" xmlns:xlink="http://www.w3.org/1999/xlink" xml:space="preserve" xmlns:serif="http://www.serif.com/" style="fill-rule:evenodd;clip-rule:evenodd;stroke-linejoin:round;stroke-miterlimit:2;"><g id="Palett-logo"><path d="M570,150l0,120l24.094,0l-0,-48.805l7.839,0c25.81,0 38.751,-10.3 38.751,-30.912l0,-9.116c0,-20.527 -13.196,-31.167 -38.751,-31.167l-31.933,0Zm31.933,17.109c5.539,0 9.374,1.023 11.504,3.067c2.131,2.045 3.153,5.709 3.153,10.991l0,9.116c0,5.198 -1.022,8.861 -3.067,10.821c-2.131,1.959 -5.965,2.982 -11.59,2.982l-7.839,-0l-0,-36.977l7.839,0Z" style="fill:#f36f22;fill-rule:nonzero;"/><path d="M669.055,270l5.11,-27.171l26.826,0l5.025,27.171l24.783,0l-25.805,-120l-34.832,0l-25.89,120l24.783,0Zm18.48,-100.676l10.305,56.396l-20.524,-0l10.219,-56.396Z" style="fill:#f36f22;fill-rule:nonzero;"/><path d="M802.26,270l-0,-17.109l-31.089,-0l0,-102.891l-24.094,0l0,120l55.183,-0Z" style="fill:#f36f22;fill-rule:nonzero;"/><path d="M875.084,270l-0,-17.109l-34.751,-0l-0,-37.147l32.962,-0l0,-17.109l-32.962,-0l-0,-31.526l34.751,0l-0,-17.109l-58.845,0l0,120l58.845,-0Z" style="fill:#f36f22;fill-rule:nonzero;"/><path d="M913.338,270l24.093,0l0,-102.891l24.616,0l-0,-17.109l-73.325,0l0,17.109l24.616,0l-0,102.891Z" style="fill:#f36f22;fill-rule:nonzero;"/><path d="M996.468,270l24.094,0l-0,-102.891l24.615,0l-0,-17.109l-73.324,0l-0,17.109l24.615,0l-0,102.891Z" style="fill:#f36f22;fill-rule:nonzero;"/></g><g id="palett-logo"><rect x="227.999" y="120.003" width="192" height="192" style="fill:none;"/><path d="M303.764,257.477c-0,-0 -2.55,-3.573 -5.735,-9.089c-3.185,-5.516 -5.004,-9.511 -5.004,-9.511c0,-0 -0.997,-2.336 -1.005,-5.489c-0.007,-3.153 1.005,-5.489 1.005,-5.489c0,-0 1.819,-3.995 5.004,-9.511c3.185,-5.516 5.735,-9.089 5.735,-9.089c-0,-0 1.524,-2.032 4.251,-3.615c2.727,-1.583 5.256,-1.874 5.256,-1.874c0,-0 4.37,-0.422 10.739,-0.422c6.369,-0 10.739,0.422 10.739,0.422c-0,-0 2.521,0.304 5.255,1.874c2.735,1.57 4.252,3.615 4.252,3.615c-0,-0 2.55,3.573 5.735,9.089c3.184,5.516 5.004,9.511 5.004,9.511c-0,-0 0.997,2.336 1.004,5.489c0.008,3.153 -1.004,5.489 -1.004,5.489c-0,-0 -1.82,3.995 -5.004,9.511c-3.185,5.516 -5.735,9.089 -5.735,9.089c-0,-0 -1.525,2.032 -4.252,3.615c-2.727,1.583 -5.255,1.874 -5.255,1.874c-0,0 -4.37,0.422 -10.739,0.422c-6.369,-0 -10.739,-0.422 -10.739,-0.422c0,0 -2.521,-0.304 -5.256,-1.874c-2.734,-1.571 -4.251,-3.615 -4.251,-3.615Z" style="fill:#f48037;"/><path d="M243.743,292.092c-0,-0 -2.551,-3.573 -5.735,-9.089c-3.185,-5.516 -5.004,-9.511 -5.004,-9.511c-0,-0 -0.997,-2.336 -1.005,-5.489c-0.007,-3.154 1.005,-5.489 1.005,-5.489c-0,-0 1.819,-3.995 5.004,-9.511c3.184,-5.516 5.735,-9.089 5.735,-9.089c-0,-0 1.524,-2.032 4.251,-3.615c2.727,-1.583 5.256,-1.874 5.256,-1.874c-0,-0 4.369,-0.422 10.739,-0.422c6.369,-0 10.738,0.422 10.738,0.422c0,-0 2.522,0.304 5.256,1.874c2.735,1.57 4.252,3.615 4.252,3.615c-0,-0 2.55,3.573 5.734,9.089c3.185,5.516 5.004,9.511 5.004,9.511c0,-0 0.998,2.335 1.005,5.489c0.007,3.153 -1.005,5.489 -1.005,5.489c0,-0 -1.819,3.995 -5.004,9.511c-3.184,5.516 -5.734,9.089 -5.734,9.089c-0,-0 -1.525,2.031 -4.252,3.614c-2.727,1.583 -5.256,1.875 -5.256,1.875c0,-0 -4.369,0.422 -10.738,0.422c-6.37,-0 -10.739,-0.422 -10.739,-0.422c-0,-0 -2.522,-0.305 -5.256,-1.875c-2.734,-1.57 -4.251,-3.614 -4.251,-3.614Z" style="fill:#f27245;"/><path d="M363.764,292.092c-0,-0 -2.55,-3.573 -5.735,-9.089c-3.185,-5.516 -5.004,-9.511 -5.004,-9.511c0,-0 -0.997,-2.336 -1.005,-5.489c-0.007,-3.154 1.005,-5.489 1.005,-5.489c0,-0 1.819,-3.995 5.004,-9.511c3.185,-5.516 5.735,-9.089 5.735,-9.089c-0,-0 1.524,-2.032 4.251,-3.615c2.727,-1.583 5.256,-1.874 5.256,-1.874c0,-0 4.37,-0.422 10.739,-0.422c6.369,-0 10.739,0.422 10.739,0.422c-0,-0 2.521,0.304 5.255,1.874c2.735,1.57 4.252,3.615 4.252,3.615c-0,-0 2.55,3.573 5.735,9.089c3.184,5.516 5.004,9.511 5.004,9.511c-0,-0 0.997,2.335 1.004,5.489c0.008,3.153 -1.004,5.489 -1.004,5.489c-0,-0 -1.82,3.995 -5.004,9.511c-3.185,5.516 -5.735,9.089 -5.735,9.089c-0,-0 -1.525,2.031 -4.252,3.614c-2.727,1.583 -5.255,1.875 -5.255,1.875c-0,-0 -4.37,0.422 -10.739,0.422c-6.369,-0 -10.739,-0.422 -10.739,-0.422c0,-0 -2.521,-0.305 -5.256,-1.875c-2.734,-1.57 -4.251,-3.614 -4.251,-3.614Z" style="fill:#eea94a;"/><path d="M303.743,187.936c-0,-0 -2.551,-3.573 -5.735,-9.089c-3.185,-5.516 -5.004,-9.511 -5.004,-9.511c-0,-0 -0.997,-2.336 -1.005,-5.489c-0.007,-3.153 1.005,-5.489 1.005,-5.489c-0,-0 1.819,-3.995 5.004,-9.511c3.184,-5.516 5.735,-9.089 5.735,-9.089c-0,-0 1.524,-2.032 4.251,-3.615c2.727,-1.583 5.256,-1.874 5.256,-1.874c-0,-0 4.369,-0.422 10.739,-0.422c6.369,-0 10.738,0.422 10.738,0.422c0,-0 2.522,0.304 5.256,1.874c2.735,1.57 4.252,3.615 4.252,3.615c-0,-0 2.55,3.573 5.734,9.089c3.185,5.516 5.004,9.511 5.004,9.511c0,-0 0.998,2.336 1.005,5.489c0.007,3.153 -1.005,5.489 -1.005,5.489c0,-0 -1.819,3.995 -5.004,9.511c-3.184,5.516 -5.734,9.089 -5.734,9.089c-0,-0 -1.525,2.031 -4.252,3.614c-2.727,1.583 -5.256,1.875 -5.256,1.875c0,-0 -4.369,0.422 -10.738,0.422c-6.37,-0 -10.739,-0.422 -10.739,-0.422c-0,-0 -2.522,-0.305 -5.256,-1.875c-2.734,-1.57 -4.251,-3.614 -4.251,-3.614Z" style="fill:#fbbe99;"/></g></svg>