<?xml version="1.0" encoding="UTF-8" standalone="no"?>
<!DOCTYPE svg PUBLIC "-//W3C//DTD SVG 1.1//EN" "http://www.w3.org/Graphics/SVG/1.1/DTD/svg11.dtd">
<svg width="100%" height="100%" viewBox="0 0 1296 432" version="1.1" xmlns="http://www.w3.org/2000/svg" xmlns:xlink="http://www.w3.org/1999/xlink" xml:space="preserve" xmlns:serif="http://www.serif.com/" style="fill-rule:evenodd;clip-rule:evenodd;stroke-linejoin:round;stroke-miterlimit:2;">
    <g id="Palett-logo" transform="matrix(0.40589,0,0,0.267944,120.84,-509.722)">
        <path d="M1172.07,2506.95L1172.07,2910.02L1225.49,2910.02L1225.49,2746.09L1242.87,2746.09C1300.1,2746.09 1328.8,2711.49 1328.8,2642.26L1328.8,2611.64C1328.8,2542.69 1299.54,2506.95 1242.87,2506.95L1172.07,2506.95ZM1242.87,2564.42C1255.15,2564.42 1263.66,2567.85 1268.38,2574.72C1273.11,2581.59 1275.37,2593.89 1275.37,2611.64L1275.37,2642.26C1275.37,2659.71 1273.11,2672.02 1268.57,2678.6C1263.85,2685.18 1255.34,2688.62 1242.87,2688.62L1225.49,2688.62L1225.49,2564.42L1242.87,2564.42Z" style="fill:rgb(243,111,34);fill-rule:nonzero;"/>
        <path d="M1391.7,2910.02L1403.04,2818.75L1462.52,2818.75L1473.66,2910.02L1528.61,2910.02L1471.39,2506.95L1394.16,2506.95L1336.75,2910.02L1391.7,2910.02ZM1432.68,2571.86L1455.53,2761.28L1410.02,2761.28L1432.68,2571.86Z" style="fill:rgb(243,111,34);fill-rule:nonzero;"/>
        <path d="M1687.07,2910.02L1687.07,2852.55L1618.13,2852.55L1618.13,2506.95L1564.71,2506.95L1564.71,2910.02L1687.07,2910.02Z" style="fill:rgb(243,111,34);fill-rule:nonzero;"/>
        <path d="M1848.54,2910.02L1848.54,2852.55L1771.49,2852.55L1771.49,2727.78L1844.58,2727.78L1844.58,2670.31L1771.49,2670.31L1771.49,2564.42L1848.54,2564.42L1848.54,2506.95L1718.06,2506.95L1718.06,2910.02L1848.54,2910.02Z" style="fill:rgb(243,111,34);fill-rule:nonzero;"/>
        <path d="M1933.37,2910.02L1986.79,2910.02L1986.79,2564.42L2041.37,2564.42L2041.37,2506.95L1878.79,2506.95L1878.79,2564.42L1933.37,2564.42L1933.37,2910.02Z" style="fill:rgb(243,111,34);fill-rule:nonzero;"/>
        <path d="M2117.7,2910.02L2171.12,2910.02L2171.12,2564.42L2225.7,2564.42L2225.7,2506.95L2063.11,2506.95L2063.11,2564.42L2117.7,2564.42L2117.7,2910.02Z" style="fill:rgb(243,111,34);fill-rule:nonzero;"/>
    </g>
    <g id="logo" transform="matrix(0.181097,0,0,0.181097,226.124,124.74)">
        <g transform="matrix(0.920318,0,0,0.920318,43.4925,6.95619)">
            <rect x="0" y="0" width="1080" height="1080" style="fill:none;"/>
        </g>
        <g transform="matrix(6.48715e-17,1.05943,-1.05943,6.48715e-17,868.728,-141.869)">
            <path d="M280.358,146.232C294.871,137.853 312.753,137.853 327.267,146.232C356.032,162.84 404.504,190.825 433.27,207.433C447.783,215.812 456.724,231.298 456.724,248.058L456.724,370.459C456.724,387.218 447.783,402.704 433.27,411.084C404.504,427.691 356.032,455.676 327.267,472.284C312.753,480.664 294.871,480.664 280.358,472.284C251.592,455.676 203.12,427.691 174.355,411.084C159.841,402.704 150.9,387.218 150.9,370.459L150.9,248.058C150.9,231.298 159.841,215.812 174.355,207.433C203.12,190.825 251.592,162.84 280.358,146.232Z" style="fill:rgb(251,190,153);"/>
        </g>
        <g transform="matrix(6.48715e-17,1.05943,-1.05943,6.48715e-17,868.728,218.131)">
            <path d="M280.358,146.232C294.871,137.853 312.753,137.853 327.267,146.232C356.032,162.84 404.504,190.825 433.27,207.433C447.783,215.812 456.724,231.298 456.724,248.058L456.724,370.459C456.724,387.218 447.783,402.704 433.27,411.084C404.504,427.691 356.032,455.676 327.267,472.284C312.753,480.664 294.871,480.664 280.358,472.284C251.592,455.676 203.12,427.691 174.355,411.084C159.841,402.704 150.9,387.218 150.9,370.459L150.9,248.058C150.9,231.298 159.841,215.812 174.355,207.433C203.12,190.825 251.592,162.84 280.358,146.232Z" style="fill:rgb(244,128,55);"/>
        </g>
        <g transform="matrix(6.48715e-17,1.05943,-1.05943,6.48715e-17,1178.01,398.131)">
            <path d="M280.358,146.232C294.871,137.853 312.753,137.853 327.267,146.232C356.032,162.84 404.504,190.825 433.27,207.433C447.783,215.812 456.724,231.298 456.724,248.058L456.724,370.459C456.724,387.218 447.783,402.704 433.27,411.084C404.504,427.691 356.032,455.676 327.267,472.284C312.753,480.664 294.871,480.664 280.358,472.284C251.592,455.676 203.12,427.691 174.355,411.084C159.841,402.704 150.9,387.218 150.9,370.459L150.9,248.058C150.9,231.298 159.841,215.812 174.355,207.433C203.12,190.825 251.592,162.84 280.358,146.232Z" style="fill:rgb(238,169,74);"/>
        </g>
        <g transform="matrix(6.48715e-17,1.05943,-1.05943,6.48715e-17,558.192,398.131)">
            <path d="M280.358,146.232C294.871,137.853 312.753,137.853 327.267,146.232C356.032,162.84 404.504,190.825 433.27,207.433C447.783,215.812 456.724,231.298 456.724,248.058L456.724,370.459C456.724,387.218 447.783,402.704 433.27,411.084C404.504,427.691 356.032,455.676 327.267,472.284C312.753,480.664 294.871,480.664 280.358,472.284C251.592,455.676 203.12,427.691 174.355,411.084C159.841,402.704 150.9,387.218 150.9,370.459L150.9,248.058C150.9,231.298 159.841,215.812 174.355,207.433C203.12,190.825 251.592,162.84 280.358,146.232Z" style="fill:rgb(242,114,69);"/>
        </g>
    </g>
</svg>
