<?xml version="1.0" encoding="UTF-8" standalone="no"?>
<!DOCTYPE svg PUBLIC "-//W3C//DTD SVG 1.1//EN" "http://www.w3.org/Graphics/SVG/1.1/DTD/svg11.dtd">
<svg width="100%" height="100%" viewBox="0 0 648 216" version="1.1" xmlns="http://www.w3.org/2000/svg" xmlns:xlink="http://www.w3.org/1999/xlink" xml:space="preserve" xmlns:serif="http://www.serif.com/" style="fill-rule:evenodd;clip-rule:evenodd;stroke-linejoin:round;stroke-miterlimit:2;">
    <g id="Palett-logo" transform="matrix(0.202945,0,0,0.133972,62.1355,-254.861)">
        <path d="M1172.07,2506.95L1172.07,2910.02L1225.49,2910.02L1225.49,2746.09L1242.87,2746.09C1300.1,2746.09 1328.8,2711.49 1328.8,2642.26L1328.8,2611.64C1328.8,2542.69 1299.54,2506.95 1242.87,2506.95L1172.07,2506.95ZM1242.87,2564.42C1255.15,2564.42 1263.66,2567.85 1268.38,2574.72C1273.11,2581.59 1275.37,2593.89 1275.37,2611.64L1275.37,2642.26C1275.37,2659.71 1273.11,2672.02 1268.57,2678.6C1263.85,2685.18 1255.34,2688.62 1242.87,2688.62L1225.49,2688.62L1225.49,2564.42L1242.87,2564.42Z" style="fill:rgb(243,111,34);fill-rule:nonzero;"/>
        <path d="M1391.7,2910.02L1403.04,2818.75L1462.52,2818.75L1473.66,2910.02L1528.61,2910.02L1471.39,2506.95L1394.16,2506.95L1336.75,2910.02L1391.7,2910.02ZM1432.68,2571.86L1455.53,2761.28L1410.02,2761.28L1432.68,2571.86Z" style="fill:rgb(243,111,34);fill-rule:nonzero;"/>
        <path d="M1687.07,2910.02L1687.07,2852.55L1618.13,2852.55L1618.13,2506.95L1564.71,2506.95L1564.71,2910.02L1687.07,2910.02Z" style="fill:rgb(243,111,34);fill-rule:nonzero;"/>
        <path d="M1848.54,2910.02L1848.54,2852.55L1771.49,2852.55L1771.49,2727.78L1844.58,2727.78L1844.58,2670.31L1771.49,2670.31L1771.49,2564.42L1848.54,2564.42L1848.54,2506.95L1718.06,2506.95L1718.06,2910.02L1848.54,2910.02Z" style="fill:rgb(243,111,34);fill-rule:nonzero;"/>
        <path d="M1933.37,2910.02L1986.79,2910.02L1986.79,2564.42L2041.37,2564.42L2041.37,2506.95L1878.79,2506.95L1878.79,2564.42L1933.37,2564.42L1933.37,2910.02Z" style="fill:rgb(243,111,34);fill-rule:nonzero;"/>
        <path d="M2117.7,2910.02L2171.12,2910.02L2171.12,2564.42L2225.7,2564.42L2225.7,2506.95L2063.11,2506.95L2063.11,2564.42L2117.7,2564.42L2117.7,2910.02Z" style="fill:rgb(243,111,34);fill-rule:nonzero;"/>
    </g>
    <g id="palett-logo" transform="matrix(0.833333,0,0,0.833333,122,68)">
        <g id="background" transform="matrix(0.106667,0,0,0.106667,-9.6,-9.6)">
            <rect x="0" y="0" width="1080" height="1080" style="fill:none;"/>
        </g>
        <g transform="matrix(0.0962963,0,0,0.0962963,-2.84007,41.3593)">
            <path d="M422.886,284.309C422.886,284.309 409.645,265.756 393.11,237.115C376.574,208.475 367.127,187.731 367.127,187.731C367.127,187.731 361.95,175.603 361.911,159.231C361.872,142.859 367.127,130.73 367.127,130.73C367.127,130.73 376.574,109.987 393.11,81.346C409.645,52.706 422.886,34.153 422.886,34.153C422.886,34.153 430.801,23.605 444.96,15.385C459.12,7.166 472.251,5.652 472.251,5.652C472.251,5.652 494.938,3.462 528.01,3.462C561.081,3.462 583.769,5.652 583.769,5.652C583.769,5.652 596.861,7.233 611.059,15.385C625.257,23.538 633.133,34.153 633.133,34.153C633.133,34.153 646.374,52.706 662.91,81.346C679.445,109.987 688.892,130.73 688.892,130.73C688.892,130.73 694.07,142.859 694.108,159.231C694.147,175.603 688.892,187.731 688.892,187.731C688.892,187.731 679.445,208.475 662.91,237.115C646.374,265.756 633.133,284.309 633.133,284.309C633.133,284.309 625.218,294.857 611.059,303.076C596.9,311.296 583.769,312.809 583.769,312.809C583.769,312.809 561.081,315 528.01,315C494.938,315 472.251,312.809 472.251,312.809C472.251,312.809 459.158,311.229 444.96,303.076C430.762,294.924 422.886,284.309 422.886,284.309Z" style="fill:rgb(244,128,55);"/>
        </g>
        <g transform="matrix(0.0962963,0,0,0.0962963,-1.67567,4.66667)">
            <path d="M99.146,845.078C99.146,845.078 85.905,826.525 69.369,797.885C52.833,769.244 43.387,748.501 43.387,748.501C43.387,748.501 38.209,736.372 38.171,720C38.132,703.628 43.387,691.499 43.387,691.499C43.387,691.499 52.833,670.756 69.369,642.115C85.905,613.475 99.146,594.922 99.146,594.922C99.146,594.922 107.061,584.374 121.22,576.154C135.379,567.935 148.51,566.422 148.51,566.422C148.51,566.422 171.198,564.231 204.269,564.231C237.341,564.231 260.028,566.422 260.028,566.422C260.028,566.422 273.121,568.002 287.319,576.154C301.517,584.307 309.393,594.922 309.393,594.922C309.393,594.922 322.634,613.475 339.169,642.115C355.705,670.756 365.152,691.499 365.152,691.499C365.152,691.499 370.329,703.628 370.368,720C370.406,736.372 365.152,748.501 365.152,748.501C365.152,748.501 355.705,769.244 339.169,797.885C322.634,826.525 309.393,845.078 309.393,845.078C309.393,845.078 301.478,855.626 287.319,863.846C273.159,872.065 260.028,873.578 260.028,873.578C260.028,873.578 237.341,875.769 204.269,875.769C171.198,875.769 148.51,873.578 148.51,873.578C148.51,873.578 135.418,871.998 121.22,863.846C107.022,855.693 99.146,845.078 99.146,845.078Z" style="fill:rgb(242,114,69);"/>
        </g>
        <g transform="matrix(0.0962963,0,0,0.0962963,-4.01507,4.66667)">
            <path d="M746.627,845.078C746.627,845.078 733.386,826.525 716.85,797.885C700.314,769.244 690.868,748.501 690.868,748.501C690.868,748.501 685.69,736.372 685.651,720C685.613,703.628 690.868,691.499 690.868,691.499C690.868,691.499 700.314,670.756 716.85,642.115C733.386,613.475 746.627,594.922 746.627,594.922C746.627,594.922 754.541,584.374 768.701,576.154C782.86,567.935 795.991,566.422 795.991,566.422C795.991,566.422 818.679,564.231 851.75,564.231C884.821,564.231 907.509,566.422 907.509,566.422C907.509,566.422 920.601,568.002 934.799,576.154C948.997,584.307 956.873,594.922 956.873,594.922C956.873,594.922 970.114,613.475 986.65,642.115C1003.19,670.756 1012.63,691.499 1012.63,691.499C1012.63,691.499 1017.81,703.628 1017.85,720C1017.89,736.372 1012.63,748.501 1012.63,748.501C1012.63,748.501 1003.19,769.244 986.65,797.885C970.114,826.525 956.873,845.078 956.873,845.078C956.873,845.078 948.959,855.626 934.799,863.846C920.64,872.065 907.509,873.578 907.509,873.578C907.509,873.578 884.821,875.769 851.75,875.769C818.679,875.769 795.991,873.578 795.991,873.578C795.991,873.578 782.899,871.998 768.701,863.846C754.503,855.693 746.627,845.078 746.627,845.078Z" style="fill:rgb(238,169,74);"/>
        </g>
        <g transform="matrix(0.0962963,0,0,0.0962963,-2.85067,6.58872)">
            <path d="M422.886,284.309C422.886,284.309 409.645,265.756 393.11,237.115C376.574,208.475 367.127,187.731 367.127,187.731C367.127,187.731 361.95,175.603 361.911,159.231C361.872,142.859 367.127,130.73 367.127,130.73C367.127,130.73 376.574,109.987 393.11,81.346C409.645,52.706 422.886,34.153 422.886,34.153C422.886,34.153 430.801,23.605 444.96,15.385C459.12,7.166 472.251,5.652 472.251,5.652C472.251,5.652 494.938,3.462 528.01,3.462C561.081,3.462 583.769,5.652 583.769,5.652C583.769,5.652 596.861,7.233 611.059,15.385C625.257,23.538 633.133,34.153 633.133,34.153C633.133,34.153 646.374,52.706 662.91,81.346C679.445,109.987 688.892,130.73 688.892,130.73C688.892,130.73 694.07,142.859 694.108,159.231C694.147,175.603 688.892,187.731 688.892,187.731C688.892,187.731 679.445,208.475 662.91,237.115C646.374,265.756 633.133,284.309 633.133,284.309C633.133,284.309 625.218,294.857 611.059,303.076C596.9,311.296 583.769,312.809 583.769,312.809C583.769,312.809 561.081,315 528.01,315C494.938,315 472.251,312.809 472.251,312.809C472.251,312.809 459.158,311.229 444.96,303.076C430.762,294.924 422.886,284.309 422.886,284.309Z" style="fill:rgb(251,190,153);"/>
        </g>
    </g>
</svg>
