<?xml version="1.0" encoding="UTF-8" standalone="no"?>
<!DOCTYPE svg PUBLIC "-//W3C//DTD SVG 1.1//EN" "http://www.w3.org/Graphics/SVG/1.1/DTD/svg11.dtd">
<svg width="100%" height="100%" viewBox="0 0 1080 1080" version="1.1" xmlns="http://www.w3.org/2000/svg" xmlns:xlink="http://www.w3.org/1999/xlink" xml:space="preserve" xmlns:serif="http://www.serif.com/" style="fill-rule:evenodd;clip-rule:evenodd;stroke-linejoin:round;stroke-miterlimit:2;">
    <g id="logo" transform="matrix(1.08658,0,0,1.08658,-47.2581,-7.55846)">
        <g transform="matrix(6.48715e-17,1.05943,-1.05943,6.48715e-17,868.728,-141.869)">
            <path d="M277.751,147.737C293.878,138.426 313.746,138.426 329.873,147.737C358,163.976 402.536,189.689 430.664,205.928C446.79,215.239 456.724,232.446 456.724,251.067L456.724,367.45C456.724,386.071 446.79,403.278 430.664,412.588C402.536,428.828 358,454.54 329.873,470.78C313.746,480.09 293.878,480.09 277.751,470.78C249.624,454.54 205.088,428.828 176.961,412.588C160.834,403.278 150.9,386.071 150.9,367.45L150.9,251.067C150.9,232.446 160.834,215.239 176.961,205.928C205.088,189.689 249.624,163.976 277.751,147.737Z" style="fill:rgb(251,190,153);"/>
        </g>
        <g transform="matrix(6.48715e-17,1.05943,-1.05943,6.48715e-17,868.728,218.131)">
            <path d="M277.751,147.737C293.878,138.426 313.746,138.426 329.873,147.737C358,163.976 402.536,189.689 430.664,205.928C446.79,215.239 456.724,232.446 456.724,251.067L456.724,367.45C456.724,386.071 446.79,403.278 430.664,412.588C402.536,428.828 358,454.54 329.873,470.78C313.746,480.09 293.878,480.09 277.751,470.78C249.624,454.54 205.088,428.828 176.961,412.588C160.834,403.278 150.9,386.071 150.9,367.45L150.9,251.067C150.9,232.446 160.834,215.239 176.961,205.928C205.088,189.689 249.624,163.976 277.751,147.737Z" style="fill:rgb(244,128,55);"/>
        </g>
        <g transform="matrix(6.48715e-17,1.05943,-1.05943,6.48715e-17,1178.01,398.131)">
            <path d="M277.751,147.737C293.878,138.426 313.746,138.426 329.873,147.737C358,163.976 402.536,189.689 430.664,205.928C446.79,215.239 456.724,232.446 456.724,251.067L456.724,367.45C456.724,386.071 446.79,403.278 430.664,412.588C402.536,428.828 358,454.54 329.873,470.78C313.746,480.09 293.878,480.09 277.751,470.78C249.624,454.54 205.088,428.828 176.961,412.588C160.834,403.278 150.9,386.071 150.9,367.45L150.9,251.067C150.9,232.446 160.834,215.239 176.961,205.928C205.088,189.689 249.624,163.976 277.751,147.737Z" style="fill:rgb(238,169,74);"/>
        </g>
        <g transform="matrix(6.48715e-17,1.05943,-1.05943,6.48715e-17,558.192,398.131)">
            <path d="M277.751,147.737C293.878,138.426 313.746,138.426 329.873,147.737C358,163.976 402.536,189.689 430.664,205.928C446.79,215.239 456.724,232.446 456.724,251.067L456.724,367.45C456.724,386.071 446.79,403.278 430.664,412.588C402.536,428.828 358,454.54 329.873,470.78C313.746,480.09 293.878,480.09 277.751,470.78C249.624,454.54 205.088,428.828 176.961,412.588C160.834,403.278 150.9,386.071 150.9,367.45L150.9,251.067C150.9,232.446 160.834,215.239 176.961,205.928C205.088,189.689 249.624,163.976 277.751,147.737Z" style="fill:rgb(242,114,69);"/>
        </g>
    </g>
</svg>
